# xmcd
#
# Track frame offsets:
#	150
#	20706
#	40247
#	61878
#	81614
#	101402
#	121983
#	138394
#	159732
#	193057
#	204012
#	225782
#	256133
#	288098
#
# Disc length: 4450 seconds
# Revision: 0
# Processed by: cddbd v1.5.2PL0 Copyright (c) Steve Scherf et al.
# Submitted via: dBpowerAMP V12.0
#
DISCID=b711600e
DTITLE=Jefferson Goncalves - Encruzilhada ao Vvo
DYEAR=2013
DGENRE=Blues
TTITLE0=Tudo Azul 
TTITLE1=My Baby Is Back
TTITLE2=Don't Look Back
TTITLE3=Down in Mississippi
TTITLE4=Just Your Fool 
TTITLE5=Crossroads 
TTITLE6=Teto Preto
TTITLE7=Encruzilhada 
TTITLE8=All Along the Watchtower
TTITLE9=Ar Puro
TTITLE10=Catfish Blues
TTITLE11=Café Expresso
TTITLE12=Big Jake
TTITLE13=Mellow Down Easy
EXTD=
EXTT0=
EXTT1=
EXTT2=
EXTT3=
EXTT4=
EXTT5=
EXTT6=
EXTT7=
EXTT8=
EXTT9=
EXTT10=
EXTT11=
EXTT12=
EXTT13=
PLAYORDER=
